<svg width="30" height="30" viewBox="0 0 30 30" fill="none" xmlns="http://www.w3.org/2000/svg">
<g clip-path="url(#clip0_241_180)">
<rect x="0.51506" y="12.9163" width="17.0738" height="17.0738" fill="#7595FD"/>
<path d="M8.27141 23.624L8.5763 26.3314L10.552 24.4532L13.9301 15.1846C13.1008 14.9773 12.3691 14.5627 11.7715 13.9895L8.27141 23.624ZM18.5279 13.9895C17.9303 14.5627 17.1863 14.9773 16.3692 15.1846L19.7474 24.4532L21.7231 26.3314L22.0402 23.624L18.5279 13.9895ZM18.7352 11.2089C19.101 9.30639 18.0034 7.62341 16.3692 7.03802V5.59895C16.3692 4.92819 15.8204 4.37939 15.1497 4.37939C14.4789 4.37939 13.9301 4.92819 13.9301 5.59895V7.03802C12.5155 7.55023 11.491 8.89174 11.491 10.4772C11.491 12.7211 13.5155 14.5017 15.8326 14.0748C17.2717 13.8065 18.4547 12.648 18.7352 11.2089ZM15.1497 11.6967C14.4789 11.6967 13.9301 11.1479 13.9301 10.4772C13.9301 9.80641 14.4789 9.25761 15.1497 9.25761C15.8204 9.25761 16.3692 9.80641 16.3692 10.4772C16.3692 11.1479 15.8204 11.6967 15.1497 11.6967Z" fill="#292E3D"/>
</g>
<defs>
<clipPath id="clip0_241_180">
<rect width="29.2693" height="29.2693" fill="white" transform="translate(0.515076 0.720703)"/>
</clipPath>
</defs>
</svg>
