<svg width="30" height="30" viewBox="0 0 30 30" fill="none" xmlns="http://www.w3.org/2000/svg">
<g clip-path="url(#clip0_241_170)">
<rect x="0.149185" y="12.9163" width="17.0738" height="17.0738" fill="#7595FD"/>
<path d="M13.5643 8.03798H17.2229L21.2353 4.01345C21.3487 3.89914 21.4835 3.80842 21.6321 3.7465C21.7808 3.68459 21.9402 3.65271 22.1012 3.65271C22.2622 3.65271 22.4216 3.68459 22.5702 3.7465C22.7188 3.80842 22.8537 3.89914 22.967 4.01345L26.1135 7.1721C26.3406 7.40059 26.4681 7.70969 26.4681 8.03188C26.4681 8.35407 26.3406 8.66317 26.1135 8.89167L23.3207 11.6966H13.5643V14.1357C13.5643 14.4592 13.4358 14.7694 13.2071 14.9981C12.9784 15.2268 12.6682 15.3553 12.3447 15.3553C12.0213 15.3553 11.7111 15.2268 11.4824 14.9981C11.2537 14.7694 11.1252 14.4592 11.1252 14.1357V10.4771C11.1252 9.83019 11.3822 9.2098 11.8396 8.75238C12.297 8.29495 12.9174 8.03798 13.5643 8.03798ZM6.24696 14.1357V19.014L3.45419 21.8067C3.22704 22.0352 3.09955 22.3443 3.09955 22.6665C3.09955 22.9887 3.22704 23.2978 3.45419 23.5263L6.60063 26.685C6.71401 26.7993 6.84889 26.89 6.99751 26.9519C7.14612 27.0138 7.30552 27.0457 7.46652 27.0457C7.62751 27.0457 7.78692 27.0138 7.93553 26.9519C8.08414 26.89 8.21903 26.7993 8.3324 26.685L13.5643 21.4531H18.4425C18.7659 21.4531 19.0761 21.3246 19.3049 21.0959C19.5336 20.8672 19.6621 20.557 19.6621 20.2335V19.014H20.8816C21.2051 19.014 21.5153 18.8855 21.744 18.6568C21.9727 18.4281 22.1012 18.1179 22.1012 17.7944V16.5749H23.3207C23.6442 16.5749 23.9544 16.4464 24.1831 16.2177C24.4118 15.9889 24.5403 15.6787 24.5403 15.3553V14.1357H16.0034V15.3553C16.0034 16.0022 15.7464 16.6226 15.289 17.08C14.8316 17.5374 14.2112 17.7944 13.5643 17.7944H11.1252C10.4783 17.7944 9.85789 17.5374 9.40047 17.08C8.94305 16.6226 8.68607 16.0022 8.68607 15.3553V11.6966L6.24696 14.1357Z" fill="#292E3D"/>
</g>
<defs>
<clipPath id="clip0_241_170">
<rect width="29.2693" height="29.2693" fill="white" transform="translate(0.1492 0.720703)"/>
</clipPath>
</defs>
</svg>
