<svg width="30" height="30" viewBox="0 0 30 30" fill="none" xmlns="http://www.w3.org/2000/svg">
<g clip-path="url(#clip0_241_159)">
<rect x="0.51506" y="12.9163" width="17.0738" height="17.0738" fill="#7595FD"/>
<path d="M23.6756 3.15991H11.5032C10.1483 3.15991 9.05194 4.25629 9.05194 5.61122V12.4858L3.3176 18.147C3.14579 18.3169 3.02833 18.5341 2.98013 18.7709C2.93193 19.0077 2.95517 19.2535 3.0469 19.477C3.13863 19.7006 3.29471 19.8919 3.49533 20.0266C3.69595 20.1613 3.93207 20.2334 4.17373 20.2337V26.3314C4.17373 26.6549 4.30222 26.9651 4.53093 27.1938C4.75964 27.4225 5.06984 27.551 5.39328 27.551H24.9061C25.2296 27.551 25.5398 27.4225 25.7685 27.1938C25.9972 26.9651 26.1257 26.6549 26.1257 26.3314V5.61C26.1257 4.25629 25.0305 3.15991 23.6756 3.15991ZM13.835 19.1495V25.1119H6.61284V18.3214L10.2556 14.7249L13.835 18.3873V19.1495ZM16.3693 11.6968H13.9302V9.25768H16.3693V11.6968ZM21.2475 21.4532H18.8084V19.0141H21.2475V21.4532ZM21.2475 16.575H18.8084V14.1359H21.2475V16.575ZM21.2475 11.6968H18.8084V9.25768H21.2475V11.6968Z" fill="#292E3D"/>
<path d="M9.05196 19.014H11.4911V21.4531H9.05196V19.014Z" fill="#14171F"/>
</g>
<defs>
<clipPath id="clip0_241_159">
<rect width="29.2693" height="29.2693" fill="white" transform="translate(0.515076 0.720703)"/>
</clipPath>
</defs>
</svg>
