<svg width="30" height="30" viewBox="0 0 30 30" fill="none" xmlns="http://www.w3.org/2000/svg">
<g clip-path="url(#clip0_241_185)">
<rect x="0.149185" y="12.9163" width="17.0738" height="17.0738" fill="#7595FD"/>
<path d="M25.7598 17.7946C25.7598 17.1238 25.211 16.575 24.5403 16.575H22.1012V19.0141H24.5403C25.211 19.0141 25.7598 18.4653 25.7598 17.7946ZM24.5403 21.4532H22.1012V23.8923H24.5403C25.211 23.8923 25.7598 23.3435 25.7598 22.6728C25.7598 22.002 25.211 21.4532 24.5403 21.4532ZM14.7838 17.7946H12.3447V22.6728H14.7838C14.7838 24.0143 15.8814 25.1119 17.2229 25.1119H20.8816V15.3555H17.2229C15.8814 15.3555 14.7838 16.4531 14.7838 17.7946Z" fill="white"/>
<path d="M6.24697 16.5749C6.24697 15.2334 7.34457 14.1358 8.68608 14.1358H10.5154C12.8691 14.1358 14.7838 12.2211 14.7838 9.86731C14.7838 7.51358 12.8691 5.59888 10.5154 5.59888H6.24697C5.57621 5.59888 5.02741 6.14768 5.02741 6.81843C5.02741 7.48919 5.57621 8.03798 6.24697 8.03798H10.5154C11.5276 8.03798 12.3447 8.85509 12.3447 9.86731C12.3447 10.8795 11.5276 11.6966 10.5154 11.6966H8.68608C5.99086 11.6966 3.80786 13.8796 3.80786 16.5749C3.80786 19.2701 5.99086 21.4531 8.68608 21.4531H11.1252V19.014H8.68608C7.34457 19.014 6.24697 17.9164 6.24697 16.5749Z" fill="white"/>
</g>
<defs>
<clipPath id="clip0_241_185">
<rect width="29.2693" height="29.2693" fill="white" transform="translate(0.1492 0.720703)"/>
</clipPath>
</defs>
</svg>
