<svg width="80" height="17" viewBox="0 0 80 17" fill="none" xmlns="http://www.w3.org/2000/svg">
<path d="M14.8336 1.90233L14.153 4.82194H9.47728L6.79914 16.3906H3.0234L5.70154 4.82194H0.981868L1.66238 1.90233H14.8336ZM13.1131 16.3906L16.7351 0.760825H20.467L18.8206 7.91717L18.4474 8.44401C18.6377 7.82936 18.923 7.28056 19.3035 6.79762C19.684 6.31467 20.1597 5.92685 20.7304 5.63416C21.3012 5.34147 21.9524 5.19512 22.6841 5.19512C23.4159 5.19512 24.0378 5.36342 24.55 5.70002C25.0769 6.03661 25.4428 6.51224 25.6476 7.1269C25.8672 7.74155 25.8818 8.47328 25.6915 9.32209L24.0452 16.3906H20.3133L21.828 9.91479C21.9597 9.32941 21.9085 8.87574 21.6743 8.55377C21.4402 8.21718 21.0597 8.04888 20.5328 8.04888C20.1377 8.04888 19.7865 8.144 19.4791 8.33425C19.1864 8.50987 18.9303 8.78061 18.7108 9.14648C18.5059 9.49771 18.345 9.93675 18.2279 10.4636L16.8449 16.3906H13.1131ZM32.6805 16.5882C31.5975 16.5882 30.6463 16.3833 29.8268 15.9735C29.0072 15.5491 28.3706 14.9637 27.9169 14.2174C27.4633 13.471 27.2364 12.6003 27.2364 11.6051C27.2364 10.3758 27.4852 9.28551 27.9828 8.33425C28.495 7.36837 29.2121 6.60737 30.1341 6.05125C31.0707 5.49513 32.1829 5.21707 33.4708 5.21707C34.5391 5.21707 35.4465 5.42196 36.1928 5.83173C36.9538 6.22686 37.5319 6.7903 37.927 7.52203C38.3222 8.25376 38.5197 9.11721 38.5197 10.1124C38.5197 10.3904 38.5051 10.6831 38.4758 10.9904C38.4466 11.2978 38.388 11.5978 38.3002 11.8905H29.6511V9.87089H35.8635L34.8318 10.4416C34.8903 10.2368 34.9269 10.0611 34.9416 9.91479C34.9562 9.76845 34.9635 9.62942 34.9635 9.49771C34.9635 9.11721 34.8977 8.80256 34.7659 8.55377C34.6342 8.30498 34.4513 8.12205 34.2171 8.00497C33.983 7.87326 33.7049 7.80741 33.383 7.80741C32.8561 7.80741 32.4171 7.9318 32.0659 8.18059C31.7293 8.42938 31.4585 8.75866 31.2536 9.16843C31.0487 9.56356 30.9024 9.99529 30.8146 10.4636C30.7414 10.9319 30.7048 11.3856 30.7048 11.8246C30.7048 12.2929 30.7926 12.6881 30.9683 13.01C31.1585 13.332 31.4073 13.5808 31.7146 13.7564C32.0366 13.9174 32.4098 13.9979 32.8342 13.9979C33.361 13.9979 33.7854 13.8808 34.1074 13.6466C34.4293 13.3978 34.6781 13.0905 34.8538 12.7246L37.927 13.932C37.6782 14.4881 37.2904 14.9637 36.7636 15.3589C36.2514 15.754 35.644 16.0613 34.9416 16.2809C34.2537 16.4858 33.5 16.5882 32.6805 16.5882ZM40.8693 16.3906V1.90233H47.9159C49.7013 1.91696 51.0184 2.26088 51.8672 2.93407C52.716 3.59263 53.1404 4.5512 53.1404 5.80978C53.1404 6.62932 52.899 7.3391 52.416 7.93912C51.9331 8.5245 51.194 8.89769 50.1989 9.05867V9.08062C51.3111 9.22697 52.1379 9.61478 52.6794 10.2441C53.2355 10.8587 53.5136 11.6051 53.5136 12.4832C53.5136 13.7271 53.0746 14.693 52.1965 15.3808C51.3184 16.054 50.0013 16.3906 48.2451 16.3906H40.8693ZM44.5133 13.7344H47.6085C48.2964 13.7344 48.8086 13.5954 49.1452 13.3173C49.4818 13.0393 49.6501 12.6368 49.6501 12.11C49.6501 11.5978 49.4818 11.21 49.1452 10.9465C48.8086 10.6685 48.2964 10.5294 47.6085 10.5294H44.5133V13.7344ZM44.5133 7.82936H47.2573C48.6037 7.82936 49.2769 7.30251 49.2769 6.24882C49.2769 5.19512 48.6037 4.66827 47.2573 4.66827H44.5133V7.82936ZM60.8366 5.19512C61.9928 5.19512 63.0026 5.42196 63.866 5.87563C64.7441 6.31467 65.4246 6.96591 65.9075 7.82936C66.4051 8.67817 66.6539 9.70259 66.6539 10.9026C66.6539 12.1027 66.4051 13.1344 65.9075 13.9979C65.4246 14.8467 64.7441 15.4979 63.866 15.9516C63.0026 16.3906 61.9928 16.6101 60.8366 16.6101C59.7098 16.6101 58.7073 16.3906 57.8292 15.9516C56.9511 15.4979 56.2633 14.8467 55.7657 13.9979C55.2828 13.1344 55.0413 12.1027 55.0413 10.9026C55.0413 9.70259 55.2828 8.67817 55.7657 7.82936C56.2633 6.96591 56.9511 6.31467 57.8292 5.87563C58.7073 5.42196 59.7098 5.19512 60.8366 5.19512ZM60.8366 7.85131C60.4122 7.85131 60.0464 7.95375 59.739 8.15864C59.4317 8.36352 59.1976 8.6928 59.0366 9.14648C58.8756 9.60015 58.7951 10.1855 58.7951 10.9026C58.7951 11.6197 58.8756 12.2051 59.0366 12.6588C59.1976 13.0978 59.4317 13.4271 59.739 13.6466C60.0464 13.8515 60.4122 13.954 60.8366 13.954C61.2757 13.954 61.6489 13.8515 61.9562 13.6466C62.2635 13.4271 62.4977 13.0978 62.6587 12.6588C62.8196 12.2051 62.9001 11.6197 62.9001 10.9026C62.9001 10.1855 62.8196 9.60015 62.6587 9.14648C62.4977 8.6928 62.2635 8.36352 61.9562 8.15864C61.6489 7.95375 61.2757 7.85131 60.8366 7.85131ZM71.3799 5.41464L74.0581 10.3538L75.2874 10.2441L79.6119 16.3906H75.3313L72.5653 11.3856H71.2702L67.0774 5.41464H71.3799ZM79.5241 5.41464L75.3752 11.3417L73.9922 11.2539L71.1165 16.3906H66.9237L71.336 10.2002L72.6092 10.3758L75.3313 5.41464H79.5241Z" fill="#2947A9"/>
</svg>
