<svg width="32" height="32" viewBox="0 0 32 32" fill="none" xmlns="http://www.w3.org/2000/svg">
<path d="M16 0.639648C7.51679 0.639648 0.639992 7.51645 0.639992 15.9996C0.639992 24.4828 7.51679 31.3596 16 31.3596C24.4832 31.3596 31.36 24.4828 31.36 15.9996C31.36 7.51645 24.4832 0.639648 16 0.639648ZM12.24 22.366H9.12959V12.3564H12.24V22.366ZM10.6656 11.1276C9.68319 11.1276 9.04799 10.4316 9.04799 9.57085C9.04799 8.69245 9.70239 8.01725 10.7056 8.01725C11.7088 8.01725 12.3232 8.69245 12.3424 9.57085C12.3424 10.4316 11.7088 11.1276 10.6656 11.1276ZM23.6 22.366H20.4896V16.8188C20.4896 15.5276 20.0384 14.6508 18.9136 14.6508C18.0544 14.6508 17.544 15.2444 17.3184 15.8156C17.2352 16.0188 17.2144 16.3068 17.2144 16.5932V22.3644H14.1024V15.5484C14.1024 14.2989 14.0624 13.254 14.0208 12.3548H16.7232L16.8656 13.7452H16.928C17.3376 13.0924 18.3408 12.1292 20.0192 12.1292C22.0656 12.1292 23.6 13.5004 23.6 16.4476V22.366Z" fill="#3D445C"/>
</svg>
