<svg width="24" height="25" viewBox="0 0 24 25" fill="none" xmlns="http://www.w3.org/2000/svg">
<path d="M23.9639 18.9011L17.1954 12.1326L19.1101 10.2179L14.5367 5.64455L12.622 7.55925L5.85351 0.790726L0.085022 6.55921L6.85354 13.3277L1.04847 19.1328V23.7061H5.6218L11.4269 17.9011L18.1954 24.6696L23.9639 18.9011ZM8.58531 11.596L3.53636 6.55921L5.85351 4.24206L7.40234 5.7909L5.95107 7.24216L7.67065 8.96173L9.12191 7.51047L10.8903 9.27882L8.58531 11.596ZM13.1586 16.1693L15.4758 13.8521L17.2441 15.6205L15.7929 17.0718L17.5124 18.7913L18.9637 17.3401L20.5125 18.8889L18.1954 21.2061L13.1586 16.1693ZM15.8453 4.34329L18.9405 1.24684L23.5114 5.81773L20.4162 8.91417L15.8453 4.34329Z" fill="#F9995D"/>
</svg>
