<svg width="30" height="30" viewBox="0 0 30 30" fill="none" xmlns="http://www.w3.org/2000/svg">
<g clip-path="url(#clip0_241_165)">
<rect x="0.51506" y="12.9163" width="17.0738" height="17.0738" fill="#7595FD"/>
<path d="M24.2964 4.37947C23.488 4.38011 22.7128 4.70154 22.1412 5.27318C21.5696 5.84482 21.2481 6.61994 21.2475 7.42835C21.2475 7.86373 21.3426 8.27716 21.5085 8.654L19.1242 11.3358C18.3143 10.7767 17.3534 10.4773 16.3693 10.4772C15.4668 10.4772 14.6326 10.7407 13.907 11.1675L11.1337 8.39546L11.1057 8.42351C11.3447 7.93812 11.4911 7.39786 11.4911 6.81857C11.4911 6.09496 11.2765 5.3876 10.8745 4.78593C10.4724 4.18427 9.90104 3.71533 9.23251 3.43841C8.56398 3.1615 7.82834 3.08904 7.11863 3.23021C6.40892 3.37138 5.75701 3.71984 5.24534 4.23151C4.73366 4.74318 4.38521 5.39509 4.24404 6.10481C4.10287 6.81452 4.17532 7.55015 4.45224 8.21868C4.72915 8.88722 5.19809 9.45862 5.79976 9.86064C6.40142 10.2627 7.10878 10.4772 7.8324 10.4772C8.41169 10.4772 8.95073 10.3309 9.43733 10.0919L9.40928 10.1199L12.1825 12.892C11.7345 13.6359 11.4956 14.487 11.4911 15.3554C11.4911 16.5713 11.9545 17.6714 12.6923 18.5275L9.54953 21.6691C9.19729 21.5281 8.82159 21.4548 8.44218 21.4532C6.76163 21.4532 5.39329 22.8203 5.39329 24.5021C5.39329 26.1839 6.76163 27.551 8.44218 27.551C10.1227 27.551 11.4911 26.1839 11.4911 24.5021C11.4911 24.1106 11.4106 23.7387 11.2752 23.3935L14.7363 19.9324C15.2497 20.1154 15.7936 20.2337 16.3693 20.2337C19.0596 20.2337 21.2475 18.0458 21.2475 15.3554C21.2475 14.5798 21.0487 13.8566 20.7255 13.2042L23.3073 10.298C23.6195 10.4053 23.9488 10.4772 24.2964 10.4772C25.9781 10.4772 27.3453 9.11012 27.3453 7.42835C27.3453 5.74659 25.9781 4.37947 24.2964 4.37947ZM16.3693 17.7946C15.0241 17.7946 13.9302 16.7006 13.9302 15.3554C13.9302 14.0103 15.0241 12.9163 16.3693 12.9163C17.7144 12.9163 18.8084 14.0103 18.8084 15.3554C18.8084 16.7006 17.7144 17.7946 16.3693 17.7946Z" fill="white"/>
</g>
<defs>
<clipPath id="clip0_241_165">
<rect width="29.2693" height="29.2693" fill="white" transform="translate(0.515076 0.720703)"/>
</clipPath>
</defs>
</svg>
