<svg width="30" height="30" viewBox="0 0 30 30" fill="none" xmlns="http://www.w3.org/2000/svg">
<g clip-path="url(#clip0_241_175)">
<rect x="0.51506" y="12.9163" width="17.0738" height="17.0738" fill="#7595FD"/>
<path d="M22.467 20.2335H20.0279V19.014H10.2715V20.2335H7.83238V19.014H2.95416V25.1117H27.3452V19.014H22.467V20.2335ZM24.9061 10.4771H21.2475V8.03798C21.2475 6.69648 20.1499 5.59888 18.8084 5.59888H11.491C10.1495 5.59888 9.05193 6.69648 9.05193 8.03798V10.4771H5.39327C4.05176 10.4771 2.95416 11.5747 2.95416 12.9162V17.7944H7.83238V15.3553H10.2715V17.7944H20.0279V15.3553H22.467V17.7944H27.3452V12.9162C27.3452 11.5747 26.2476 10.4771 24.9061 10.4771ZM18.8084 10.4771H11.491V8.03798H18.8084V10.4771Z" fill="white"/>
</g>
<defs>
<clipPath id="clip0_241_175">
<rect width="29.2693" height="29.2693" fill="white" transform="translate(0.515076 0.720703)"/>
</clipPath>
</defs>
</svg>
