<svg width="32" height="32" viewBox="0 0 32 32" fill="none" xmlns="http://www.w3.org/2000/svg">
<path d="M16 0.639648C7.51678 0.639648 0.639984 7.51645 0.639984 15.9996C0.639984 24.4828 7.51678 31.3596 16 31.3596C24.4832 31.3596 31.36 24.4828 31.36 15.9996C31.36 7.51645 24.4832 0.639648 16 0.639648ZM22.248 13.222C22.2544 13.3532 22.256 13.4844 22.256 13.6124C22.256 17.6124 19.2144 22.222 13.6496 22.222C12.0053 22.2248 10.3951 21.7525 9.01278 20.862C9.24798 20.8908 9.48958 20.9021 9.73438 20.9021C11.152 20.9021 12.456 20.4205 13.4912 19.6076C12.8603 19.5953 12.2491 19.3864 11.7426 19.0101C11.2361 18.6338 10.8596 18.1089 10.6656 17.5084C11.1186 17.5946 11.5853 17.5765 12.0304 17.4556C11.3457 17.3172 10.7299 16.9462 10.2875 16.4055C9.84513 15.8649 9.60336 15.1878 9.60318 14.4892V14.4524C10.0112 14.678 10.4784 14.8156 10.9744 14.8316C10.3325 14.4043 9.87804 13.7479 9.70406 12.9967C9.53007 12.2454 9.64967 11.4561 10.0384 10.79C10.7983 11.7244 11.746 12.4888 12.8201 13.0337C13.8942 13.5786 15.0707 13.8919 16.2736 13.9532C16.1207 13.3041 16.1865 12.6227 16.4608 12.0149C16.7351 11.407 17.2026 10.9068 17.7905 10.5921C18.3784 10.2773 19.0539 10.1656 19.7118 10.2743C20.3698 10.383 20.9734 10.7061 21.4288 11.1932C22.1059 11.0593 22.7551 10.8109 23.3488 10.4588C23.1231 11.1599 22.6507 11.7551 22.0192 12.134C22.6189 12.0618 23.2046 11.9006 23.7568 11.6556C23.3512 12.2635 22.8402 12.7939 22.248 13.222Z" fill="#3D445C"/>
</svg>
